<svg id="sun" xmlns="http://www.w3.org/2000/svg" width="1214.15" height="1195.704" viewBox="0 0 1214.15 1195.704">
  <circle id="Ellipse_26" data-name="Ellipse 26" cx="294.187" cy="294.187" r="294.187" transform="translate(312.902 311.69)" fill="#FFE234"/>
  <path id="Path_52" data-name="Path 52" d="M296.542,287H229.653L203.21,0H322.958Z" transform="translate(343.991)" fill="#FFE234"/>
  <path id="Path_53" data-name="Path 53" d="M264.8,233.22l-34.495,12.548L147.96,61.9,209.679,39.42Z" transform="translate(250.464 66.73)" fill="#FFE234"/>
  <path id="Path_54" data-name="Path 54" d="M319.739,275.18,268.5,318.157,63.79,115.31l91.716-76.96Z" transform="translate(107.983 64.918)" fill="#FFE234"/>
  <path id="Path_55" data-name="Path 55" d="M251.8,230.953l-18.365,31.775L52.16,174.808l32.852-56.9Z" transform="translate(88.296 199.596)" fill="#FFE234"/>
  <path id="Path_56" data-name="Path 56" d="M298.845,239.886l-11.606,65.892L0,281.974,20.788,164.03Z" transform="translate(0 277.668)" fill="#FFE234"/>
  <path id="Path_57" data-name="Path 57" d="M233.634,238.86l6.382,36.11-195.388,49.2L33.21,259.433Z" transform="translate(56.217 404.339)" fill="#FFE234"/>
  <path id="Path_58" data-name="Path 58" d="M281.236,273.46l33.444,57.922L79.331,497.769,19.47,394.07Z" transform="translate(32.959 462.909)" fill="#FFE234"/>
  <path id="Path_59" data-name="Path 59" d="M232.3,311.34,260.39,334.9,142.338,498.192,92.01,455.943Z" transform="translate(155.753 527.032)" fill="#FFE234"/>
  <path id="Path_60" data-name="Path 60" d="M250.6,332.03l62.85,22.889-73.325,278.73L127.59,592.692Z" transform="translate(215.982 562.055)" fill="#FFE234"/>
  <path id="Path_61" data-name="Path 61" d="M227.754,343.42H264.43l14.541,200.962H213.24Z" transform="translate(360.969 581.336)" fill="#FFE234"/>
  <path id="Path_62" data-name="Path 62" d="M254.28,354.9l62.85-22.862,122.98,260.635L327.6,633.632Z" transform="translate(430.441 562.072)" fill="#FFE234"/>
  <path id="Path_63" data-name="Path 63" d="M296.35,334.929l28.086-23.589L464.73,455.969,414.4,498.192Z" transform="translate(501.657 527.032)" fill="#FFE234"/>
  <path id="Path_64" data-name="Path 64" d="M321.79,331.382l33.444-57.922L617,394.07l-59.861,103.7Z" transform="translate(544.721 462.909)" fill="#FFE234"/>
  <path id="Path_65" data-name="Path 65" d="M340.88,275l6.382-36.137,200.424,20.6-11.417,64.708Z" transform="translate(577.036 404.339)" fill="#FFE234"/>
  <path id="Path_66" data-name="Path 66" d="M351.543,305.761,339.91,239.9,617.967,164.04l20.788,117.917Z" transform="translate(575.394 277.684)" fill="#FFE234"/>
  <path id="Path_67" data-name="Path 67" d="M342.938,262.728,324.6,230.98,491.391,117.91l32.825,56.925Z" transform="translate(549.478 199.596)" fill="#FFE234"/>
  <path id="Path_68" data-name="Path 68" d="M343.277,318.184l-51.217-43L456.293,38.35l91.716,76.96Z" transform="translate(494.395 64.918)" fill="#FFE234"/>
  <path id="Path_69" data-name="Path 69" d="M294.018,245.768,259.55,233.247,314.644,39.42,376.39,61.9Z" transform="translate(439.362 66.73)" fill="#FFE234"/>
</svg>
